<svg version="1.1" xmlns="http://www.w3.org/2000/svg" xmlns:xlink="http://www.w3.org/1999/xlink" width="100.0339" height="85.49475" viewBox="0,0,100.0339,85.49475"><g transform="translate(-190.2762,-127.61085)"><g stroke-miterlimit="10"><path d="M226.7187,200.2412v0c-1.3109,-1.7582 2.9235,-4.2324 3.5377,-1.7106c0.4478,1.8397 2.1562,5.7057 2.1562,5.7057c0,0 6.183,-0.5801 5.897,1.8756c-0.2875,2.4529 -3.8926,1.4356 -3.8926,1.4356c0,0 0.9983,4.1478 -0.5208,4.8081c-1.5191,0.6604 -2.9076,-2.8604 -2.9076,-2.8604c0,0 -1.1235,2.2464 -2.3606,1.6118c-0.6199,-0.3176 -0.3809,-2.3922 0.5149,-4.0964c0.8959,-1.7014 -2.4242,-6.7694 -2.4242,-6.7694z" fill="#7f7f7f" stroke="#000000" stroke-width="1.5" stroke-linecap="butt" stroke-linejoin="miter"/><path d="M230.2995,172.8704v0c-0.7504,2.0603 -5.1434,-0.1192 -3.3717,-2.0169c1.2923,-1.3843 3.5854,-4.9348 3.5854,-4.9348c0,0 -3.8801,-4.8506 -1.6701,-5.9601c2.208,-1.1067 3.3365,2.4656 3.3365,2.4656c0,0 2.9185,-3.1114 4.3043,-2.2053c1.3866,0.9089 -0.7938,4.0022 -0.7938,4.0022c0,0 2.4958,-0.2926 2.6441,1.088c0.0742,0.6927 -1.7912,1.6325 -3.707,1.8192c-1.9137,0.1853 -4.3277,5.7421 -4.3277,5.7421z" fill="#7f7f7f" stroke="#000000" stroke-width="1.5" stroke-linecap="butt" stroke-linejoin="miter"/><path d="M249.3324,174.7686v0c-0.7497,2.0603 -5.142,-0.1193 -3.3717,-2.017c1.2916,-1.3842 3.586,-4.9348 3.586,-4.9348c0,0 -3.8814,-4.8505 -1.67,-5.9601c2.2073,-1.1067 3.3358,2.4657 3.3358,2.4657c0,0 2.9171,-3.1114 4.3036,-2.2053c1.388,0.9089 -0.7931,4.0022 -0.7931,4.0022c0,0 2.4957,-0.2926 2.6441,1.0879c0.0742,0.6927 -1.7912,1.6325 -3.707,1.8192c-1.9137,0.1854 -4.3277,5.7422 -4.3277,5.7422z" fill="#7f7f7f" stroke="#000000" stroke-width="1.5" stroke-linecap="butt" stroke-linejoin="miter"/><path d="M245.3056,200.6829v0c-1.7223,-1.3572 1.7216,-4.847 2.9715,-2.5707c0.9097,1.6597 3.5633,4.9495 3.5633,4.9495c0,0 5.8223,-2.1686 6.1842,0.2782c0.3598,2.442 -3.3853,2.3969 -3.3853,2.3969c0,0 2.0417,3.746 0.7478,4.7783c-1.2966,1.0344 -3.5538,-2.0053 -3.5538,-2.0053c0,0 -0.5011,2.4621 -1.859,2.1702c-0.6824,-0.1458 -0.9901,-2.2105 -0.5689,-4.09c0.4227,-1.8761 -4.0998,-5.9071 -4.0998,-5.9071z" fill="#7f7f7f" stroke="#000000" stroke-width="1.5" stroke-linecap="butt" stroke-linejoin="miter"/><path d="M260.6442,194.2898c-2.9563,3.6391 -11.1049,8.6337 -26.8745,7.3939c-15.7695,-1.2391 -19.4178,-11.0177 -17.5387,-20.6894c1.8805,-9.6696 10.8432,-14.4869 23.8831,-11.7962c12.2761,3.6427 13.5415,3.8468 17.7711,6.0302c9.9478,5.1355 6.029,15.0364 2.759,19.0615zM233.769,201.6837c-15.7695,-1.2391 -19.4185,-11.0177 -17.538,-20.6901c1.8791,-9.6696 10.8425,-14.4869 23.8824,-11.7962" fill="#7f7f7f" stroke="#000000" stroke-width="1.5" stroke-linecap="butt" stroke-linejoin="miter"/><g stroke-width="1.5" stroke-linejoin="miter"><path d="M285.9863,199.5705c-2.843,-1.6774 -3.4485,-4.2419 -3.4485,-4.2419" fill="none" stroke="#000000" stroke-linecap="round"/><path d="M289.0401,196.7929c-3.2546,-0.5648 -4.7271,-2.7467 -4.7271,-2.7467" fill="none" stroke="#000000" stroke-linecap="round"/><path d="M283.1941,178.4477c0,0 0.5509,-2.5771 3.36,-4.3123" fill="none" stroke="#000000" stroke-linecap="round"/><path d="M284.8902,180.4408c0,0 1.4276,-2.2126 4.6699,-2.8439" fill="none" stroke="#000000" stroke-linecap="round"/><path d="M271.2423,198.7747v0c-6.347,-0.6899 -11.6612,-5.5794 -11.9584,-12.1564c-0.2971,-6.5771 7.2562,-12.2751 11.0759,-12.3153c0,0 4.0223,-1.9174 9.1684,1.1636c2.4603,1.4725 7.2672,4.578 7.3235,11.6352c0.0406,4.8694 -2.5523,7.5151 -5.2494,9.1346c-5.8635,3.5198 -10.36,2.5383 -10.36,2.5383z" fill="#7f7f7f" stroke="#000000" stroke-linecap="butt"/><path d="M284.692,187.2778c-0.0093,-0.9036 0.2336,-1.7253 0.6332,-2.3223c0.3996,-0.5971 0.9558,-0.9702 1.5745,-0.9766c0.6187,-0.0064 1.1825,0.3551 1.5944,0.9438c0.4118,0.5886 0.6717,1.4051 0.681,2.3087c0.0094,0.9036 -0.2335,1.7253 -0.6331,2.3224c-0.3996,0.5971 -0.9558,0.9702 -1.5745,0.9766c-0.6187,0.0064 -1.1825,-0.3551 -1.5944,-0.9438c-0.4118,-0.5887 -0.6717,-1.4052 -0.6811,-2.3088z" fill="#000000" stroke="#000000" stroke-linecap="butt"/><g stroke-linecap="butt"><path d="M272.7335,181.4501c-0.0093,-0.9036 0.3495,-1.7265 0.9362,-2.3262c0.5874,-0.599 1.4027,-0.9748 2.3063,-0.9842c0.9036,-0.0093 1.7265,0.3495 2.3262,0.9362c0.599,0.5874 0.9748,1.4027 0.9842,2.3063c0.0093,0.9036 -0.3495,1.7265 -0.9362,2.3262c-0.5874,0.599 -1.4027,0.9748 -2.3063,0.9842c-0.9036,0.0093 -1.7266,-0.3495 -2.3262,-0.9362c-0.599,-0.5874 -0.9748,-1.4027 -0.9842,-2.3063z" fill="#ffffff" stroke="#000000"/><path d="M274.5883,180.699c-0.0058,-0.5636 0.2179,-1.0771 0.5842,-1.4503c0.3656,-0.3739 0.8744,-0.6083 1.4379,-0.6141c0.5635,-0.0058 1.077,0.2179 1.4503,0.5842c0.3739,0.3656 0.6082,0.8743 0.6141,1.4379c0.0058,0.5635 -0.218,1.077 -0.5842,1.4503c-0.3656,0.3739 -0.8744,0.6082 -1.4379,0.614c-0.5635,0.0059 -1.0771,-0.2179 -1.4503,-0.5842c-0.3739,-0.3655 -0.6083,-0.8743 -0.6141,-1.4378z" fill="#000000" stroke="none"/><g stroke="none"><path d="M273.0458,185.0386c0,0 -5.2272,-3.2255 -0.0752,-7.2693c0,-0.0007 1.6584,4.0229 0.0752,7.2693z" fill="#58595b"/><path d="M274.2043,181.6492c0.0282,2.7318 -0.8416,3.9776 -0.8795,4.0318c-0.1686,0.235 -0.4963,0.2887 -0.7313,0.1207c-0.2336,-0.168 -0.2879,-0.4908 -0.1235,-0.7271c0.0165,-0.0247 0.8106,-1.2376 0.6709,-3.9367c-0.1386,-2.6014 -0.6236,-3.241 -0.6286,-3.2473c-0.2046,-0.2011 -0.1988,-0.521 0.005,-0.7277c0.2025,-0.2067 0.5455,-0.197 0.7523,0.0055c0.1756,0.172 0.76,0.9621 0.9169,3.9146c0.0097,0.1948 0.0159,0.3847 0.0178,0.5662z" fill="#000000"/></g></g><g stroke-linecap="butt"><path d="M272.6724,193.0249c-0.0093,-0.9036 0.3495,-1.7266 0.9362,-2.3262c0.5874,-0.599 1.4028,-0.9748 2.3064,-0.9842c0.9036,-0.0093 1.7265,0.3495 2.3262,0.9362c0.599,0.5874 0.9747,1.4027 0.9841,2.3063c0.0093,0.9036 -0.3495,1.7265 -0.9362,2.3262c-0.5874,0.599 -1.4027,0.9748 -2.3063,0.9842c-0.9036,0.0093 -1.7265,-0.3495 -2.3262,-0.9362c-0.599,-0.5874 -0.9748,-1.4027 -0.9842,-2.3063z" fill="#ffffff" stroke="#000000"/><path d="M274.4477,192.2124c-0.0059,-0.5635 0.2179,-1.077 0.5842,-1.4503c0.3655,-0.3739 0.8743,-0.6082 1.4379,-0.614c0.5635,-0.0059 1.077,0.2179 1.4502,0.5842c0.374,0.3655 0.6083,0.8743 0.6141,1.4378c0.0059,0.5636 -0.2179,1.0771 -0.5842,1.4503c-0.3655,0.3739 -0.8743,0.6083 -1.4378,0.6141c-0.5636,0.0058 -1.0771,-0.2179 -1.4503,-0.5842c-0.374,-0.3656 -0.6083,-0.8743 -0.6141,-1.4379z" fill="#000000" stroke="none"/><g stroke="none"><path d="M273.3788,196.9019c0,0 -5.5349,-2.6643 -0.8311,-7.2224c0,0 2.0663,3.8295 0.8311,7.2224z" fill="#58595b"/><path d="M274.1765,193.4102c0.3124,2.7141 -0.4225,4.043 -0.4554,4.102c-0.1434,0.2508 -0.4637,0.3394 -0.7138,0.1967c-0.2494,-0.1427 -0.3386,-0.4595 -0.1981,-0.711c0.0144,-0.026 0.6771,-1.3151 0.2577,-3.9841c-0.4086,-2.5728 -0.9566,-3.16 -0.963,-3.1656c-0.2232,-0.1785 -0.2524,-0.4967 -0.071,-0.7234c0.1799,-0.2268 0.5218,-0.2527 0.7486,-0.0734c0.1922,0.1523 0.8562,0.878 1.3187,3.7974c0.0306,0.1938 0.0556,0.3814 0.0763,0.5614z" fill="#000000"/></g></g><path d="M271.7361,197.2255c0,0 0.0584,5.6395 -3.9943,9.079c-3.0025,2.5466 -8.3579,1.8471 -10.9752,-1.3746c-2.6188,-3.2218 -1.5076,-8.5437 2.7831,-10.9898c3.4248,-1.9539 7.7334,-1.7241 7.7334,-1.7241" fill="#57595b" stroke="#000000" stroke-linecap="butt"/><path d="M266.8745,182.7615c0,0 -5.6205,0.4807 -9.3526,-3.3036c-2.7653,-2.804 -2.467,-8.1971 0.5491,-11.0484c3.0161,-2.8505 8.4065,-2.1402 11.1676,1.9544c2.2044,3.2686 2.298,7.5829 2.298,7.5829" fill="#57595b" stroke="#000000" stroke-linecap="butt"/></g><path d="M218.767,187.6298c-4.9387,1.7014 -14.6427,4.0534 -22.5023,-3.9811c-10.8037,-11.0454 -1.5626,-29.2527 -1.4695,-29.4296c0,0 -8.2085,17.3599 1.883,27.6794c7.321,7.4849 16.7209,4.6995 21.3472,3.1047c2.3455,0.8431 0.8638,2.5576 0.8638,2.5576c0,0 0.0003,0.0273 -0.1222,0.069z" fill="#58595b" stroke="#000000" stroke-width="1.5" stroke-linecap="butt" stroke-linejoin="round"/><text transform="translate(274.42102,144.36085) scale(0.5,0.5)" font-size="40" xml:space="preserve" fill="#000000" stroke="none" stroke-width="3" stroke-linecap="butt" stroke-linejoin="miter" font-family="&quot;URW Gothic&quot;, Scratch" font-weight="normal" text-anchor="start"><tspan x="0" dy="0"> </tspan></text></g></g></svg>