<svg version="1.1" xmlns="http://www.w3.org/2000/svg" xmlns:xlink="http://www.w3.org/1999/xlink" width="56.28968" height="46.32667" viewBox="0,0,56.28968,46.32667"><defs><linearGradient x1="109.90685" y1="-269.78954" x2="109.90685" y2="-314.95734" gradientUnits="userSpaceOnUse" id="color-1"><stop offset="0" stop-color="#ee2a7b"/><stop offset="1" stop-color="#811150"/></linearGradient></defs><g transform="translate(-212.41019,-157.02045)"><g data-paper-data="{&quot;isPaintingLayer&quot;:true}" fill="url(#color-1)" fill-rule="nonzero" stroke="#ffffff" stroke-width="1.15823" stroke-linecap="butt" stroke-linejoin="miter" stroke-miterlimit="10" stroke-dasharray="" stroke-dashoffset="0" style="mix-blend-mode: normal"><path d="M229.84505,175.17906c0,0 22.9255,-0.0097 33.3375,-0.0097c2.7274,0 4.9382,2.2113 4.9382,4.9382c0,2.7274 -2.2108,4.9378 -4.9382,4.9378c-8.7293,0 -33.3107,0.0102 -33.3107,0.0102c0,0 1.6503,1.6701 9.2636,9.2829c1.9286,1.9287 1.9286,5.055 0,6.9832c-1.9296,1.9282 -5.0555,1.9287 -6.9837,0c-6.1733,-6.1724 -17.7163,-17.7167 -17.7163,-17.7167c-1.9282,-1.9287 -1.9282,-5.0554 0,-6.9832c0,0 9.9613,-9.9617 17.5745,-17.575c1.9296,-1.9296 5.0559,-1.9296 6.9837,0c1.9287,1.9283 1.9287,5.0555 0,6.9823c-6.1734,6.1752 -9.1486,9.15 -9.1486,9.15z"/></g></g></svg>