<svg version="1.1" xmlns="http://www.w3.org/2000/svg" xmlns:xlink="http://www.w3.org/1999/xlink" width="115.6" height="52.86728" viewBox="0,0,115.6,52.86728"><g transform="translate(-174.75,-158.99448)"><g stroke-width="1.5" stroke-miterlimit="10"><path d="M248.4,197.9v0c0.5,-2.1 5.1,-0.5 3.4,1.7c-1.1,1.5 -3,5.3 -3,5.3c0,0 4.4,4.4 2.3,5.7c-2.1,1.3 -3.6,-2.1 -3.6,-2.1c0,0 -2.5,3.5 -4,2.7c-1.4,-0.8 0.4,-4.1 0.4,-4.1c0,0 -2.4,0.6 -2.7,-0.8c-0.1,-0.7 1.6,-1.8 3.5,-2.2c1.9,-0.4 3.7,-6.2 3.7,-6.2z" fill="#7f7f7f" stroke="#000000" stroke-linecap="butt" stroke-linejoin="miter"/><path d="M229.9,197.6v0c0.7,-2.1 5.2,0 3.3,2c-1.2,1.4 -3.4,5 -3.4,5c0,0 4,4.7 1.8,5.9c-2.2,1.1 -3.4,-2.4 -3.4,-2.4c0,0 -2.8,3.2 -4.2,2.3c-1.4,-0.8 0.7,-4 0.7,-4c0,0 -2.5,0.4 -2.7,-1c0,-0.7 1.8,-1.7 3.7,-1.9c1.9,-0.3 4.2,-5.9 4.2,-5.9z" fill="#7f7f7f" stroke="#000000" stroke-linecap="butt" stroke-linejoin="miter"/><path d="M234.1,170.7v0c1.6,1.5 -2.2,4.6 -3.3,2.2c-0.7,-1.8 -3,-5.3 -3,-5.3c0,0 -6,1.6 -6.1,-0.9c-0.1,-2.4 3.6,-2 3.6,-2c0,0 -1.7,-3.9 -0.3,-4.8c1.4,-0.9 3.3,2.4 3.3,2.4c0,0 0.8,-2.4 2.1,-2c0.7,0.2 0.8,2.3 0.2,4.1c-0.6,1.8 3.5,6.3 3.5,6.3z" fill="#7f7f7f" stroke="#000000" stroke-linecap="butt" stroke-linejoin="miter"/><path d="M251.8,174.1v0c1,1.9 -3.6,3.6 -3.8,1.1c-0.1,-1.9 -1.1,-6 -1.1,-6c0,0 -6.2,-0.5 -5.5,-2.9c0.7,-2.3 4.1,-0.7 4.1,-0.7c0,0 -0.3,-4.2 1.3,-4.6c1.6,-0.4 2.4,3.3 2.4,3.3c0,0 1.5,-2 2.6,-1.2c0.6,0.4 0,2.4 -1.2,3.9c-1.2,1.5 1.2,7.1 1.2,7.1z" fill="#7f7f7f" stroke="#000000" stroke-linecap="butt" stroke-linejoin="miter"/><path d="M260.6,194.3c-3,3.6 -11.1,8.6 -26.9,7.4c-15.8,-1.2 -19.4,-11 -17.5,-20.7c1.9,-9.7 10.8,-14.5 23.9,-11.8c12.3,3.6 13.5,3.8 17.8,6c9.9,5.2 6,15.1 2.7,19.1zM233.8,201.7c-15.8,-1.2 -19.4,-11 -17.5,-20.7c1.9,-9.7 10.8,-14.5 23.9,-11.8" fill="#7f7f7f" stroke="#000000" stroke-linecap="butt" stroke-linejoin="miter"/><path d="M285.9,199.6c-2.8,-1.6 -3.4,-4.2 -3.4,-4.2" fill="none" stroke="#000000" stroke-linecap="round" stroke-linejoin="miter"/><path d="M289,196.8c-3.2,-0.5 -4.7,-2.7 -4.7,-2.7" fill="none" stroke="#000000" stroke-linecap="round" stroke-linejoin="miter"/><path d="M283.2,178.5c0,0 0.6,-2.6 3.4,-4.3" fill="none" stroke="#000000" stroke-linecap="round" stroke-linejoin="miter"/><path d="M284.9,180.5c0,0 1.4,-2.2 4.7,-2.8" fill="none" stroke="#000000" stroke-linecap="round" stroke-linejoin="miter"/><path d="M271.2,198.8v0c-6.3,-0.7 -11.7,-5.5 -12,-12.1c-0.3,-6.6 7.3,-12.3 11.1,-12.3c0,0 4.1,-1.9 9.2,1.2c2.4,1.4 7.2,4.5 7.3,11.6c0.1,4.8 -2.5,7.5 -5.2,9.1c-5.9,3.5 -10.4,2.5 -10.4,2.5z" fill="#7f7f7f" stroke="#000000" stroke-linecap="butt" stroke-linejoin="miter"/><path d="M284.7,187.3c0,-0.9 0.2,-1.7 0.6,-2.3c0.4,-0.6 1,-1 1.6,-1c0.6,0 1.2,0.4 1.6,0.9c0.4,0.6 0.7,1.4 0.7,2.3c0,0.9 -0.2,1.7 -0.6,2.3c-0.4,0.6 -1,1 -1.6,1c-0.6,0 -1.2,-0.4 -1.6,-0.9c-0.4,-0.5 -0.7,-1.4 -0.7,-2.3z" fill="#000000" stroke="#000000" stroke-linecap="butt" stroke-linejoin="miter"/><g stroke-linecap="butt" stroke-linejoin="miter"><path d="M272.7,181.5c0,-0.9 0.3,-1.7 0.9,-2.3c0.6,-0.6 1.4,-1 2.3,-1c0.9,0 1.7,0.3 2.3,0.9c0.6,0.6 1,1.4 1,2.3c0,0.9 -0.3,1.7 -0.9,2.3c-0.6,0.6 -1.4,1 -2.3,1c-0.9,0 -1.7,-0.3 -2.3,-0.9c-0.6,-0.6 -1,-1.4 -1,-2.3z" fill="#ffffff" stroke="#000000"/><path d="M274.6,180.7c0,-0.6 0.2,-1.1 0.6,-1.5c0.4,-0.4 0.9,-0.6 1.4,-0.6c0.5,0 1.1,0.2 1.5,0.6c0.4,0.4 0.6,0.9 0.6,1.4c0,0.6 -0.2,1.1 -0.6,1.5c-0.4,0.4 -0.9,0.6 -1.4,0.6c-0.5,0 -1.1,-0.2 -1.5,-0.6c-0.4,-0.3 -0.6,-0.8 -0.6,-1.4z" fill="#000000" stroke="none"/><g stroke="none"><path d="M273,185.1c0,0 -5.2,-3.2 -0.1,-7.3c0.1,0 1.7,4 0.1,7.3z" fill="#58595b"/><path d="M274.2,181.7c0,2.7 -0.8,4 -0.9,4c-0.2,0.2 -0.5,0.3 -0.7,0.1c-0.2,-0.2 -0.3,-0.5 -0.1,-0.7c0,0 0.8,-1.2 0.7,-3.9c-0.1,-2.6 -0.6,-3.2 -0.6,-3.2c-0.2,-0.2 -0.2,-0.5 0,-0.7c0.2,-0.2 0.5,-0.2 0.8,0c0.2,0.2 0.8,1 0.9,3.9c-0.1,0.1 -0.1,0.3 -0.1,0.5z" fill="#000000"/></g></g><g stroke-linecap="butt" stroke-linejoin="miter"><path d="M272.7,193c0,-0.9 0.3,-1.7 0.9,-2.3c0.6,-0.6 1.4,-1 2.3,-1c0.9,0 1.7,0.3 2.3,0.9c0.6,0.6 1,1.4 1,2.3c0,0.9 -0.3,1.7 -0.9,2.3c-0.6,0.6 -1.4,1 -2.3,1c-0.9,0 -1.7,-0.3 -2.3,-0.9c-0.7,-0.5 -1,-1.3 -1,-2.3z" fill="#ffffff" stroke="#000000"/><path d="M274.4,192.2c0,-0.6 0.2,-1.1 0.6,-1.5c0.4,-0.4 0.9,-0.6 1.4,-0.6c0.6,0 1.1,0.2 1.5,0.6c0.4,0.4 0.6,0.9 0.6,1.4c0,0.6 -0.2,1.1 -0.6,1.5c-0.4,0.4 -0.9,0.6 -1.4,0.6c-0.6,0 -1.1,-0.2 -1.5,-0.6c-0.3,-0.3 -0.6,-0.8 -0.6,-1.4z" fill="#000000" stroke="none"/><g stroke="none"><path d="M273.4,196.9c0,0 -5.5,-2.7 -0.8,-7.2c-0.1,0 2,3.8 0.8,7.2z" fill="#58595b"/><path d="M274.2,193.4c0.3,2.7 -0.4,4 -0.5,4.1c-0.1,0.3 -0.5,0.3 -0.7,0.2c-0.2,-0.1 -0.3,-0.5 -0.2,-0.7c0,0 0.7,-1.3 0.3,-4c-0.4,-2.6 -1,-3.2 -1,-3.2c-0.2,-0.2 -0.3,-0.5 -0.1,-0.7c0.2,-0.2 0.5,-0.3 0.7,-0.1c0.2,0.2 0.9,0.9 1.3,3.8c0.1,0.3 0.1,0.5 0.2,0.6z" fill="#000000"/></g></g><path d="M271.8,197.2c0,0 0.1,5.7 -4,9.1c-3,2.5 -8.4,1.8 -11,-1.4c-2.6,-3.2 -1.5,-8.6 2.8,-11c3.4,-1.9 7.7,-1.7 7.7,-1.7" fill="#57595b" stroke="#000000" stroke-linecap="butt" stroke-linejoin="miter"/><path d="M266.9,182.7c0,0 -5.7,0.5 -9.4,-3.3c-2.8,-2.8 -2.5,-8.1 0.5,-11c3,-2.8 8.4,-2.1 11.2,2c2.2,3.3 2.3,7.6 2.3,7.6" fill="#57595b" stroke="#000000" stroke-linecap="butt" stroke-linejoin="miter"/><path d="M218.8,187.7c-4.9,1.7 -12.1,1 -22.5,-4c-12.4,-6.1 -20.8,-15 -20.8,-15.2c0,0 11.9,9.1 21.2,13.4c9.8,4.4 16.7,4.7 21.3,3.1c2.3,0.8 0.9,2.6 0.9,2.6c0,0 0,0 -0.1,0.1z" fill="#58595b" stroke="#000000" stroke-linecap="butt" stroke-linejoin="round"/></g></g></svg>