<svg version="1.1" xmlns="http://www.w3.org/2000/svg" xmlns:xlink="http://www.w3.org/1999/xlink" width="46.32667" height="56.28968" viewBox="0,0,46.32667,56.28968"><defs><linearGradient x1="690.52834" y1="49.5356" x2="735.69614" y2="49.5356" gradientUnits="userSpaceOnUse" id="color-1"><stop offset="0" stop-color="#ee2a7b"/><stop offset="1" stop-color="#811150"/></linearGradient></defs><g transform="translate(-217.39169,-152.03894)"><g data-paper-data="{&quot;isPaintingLayer&quot;:true}" fill="url(#color-1)" fill-rule="nonzero" stroke="#ffffff" stroke-width="1.15823" stroke-linecap="butt" stroke-linejoin="miter" stroke-miterlimit="10" stroke-dasharray="" stroke-dashoffset="0" style="mix-blend-mode: normal"><path d="M245.55974,169.4738c0,0 0.0097,22.9255 0.0097,33.3375c0,2.7274 -2.2113,4.9382 -4.9382,4.9382c-2.7274,0 -4.9378,-2.2108 -4.9378,-4.9382c0,-8.7293 -0.0102,-33.3107 -0.0102,-33.3107c0,0 -1.6701,1.6503 -9.2829,9.2636c-1.9287,1.9286 -5.055,1.9286 -6.9832,0c-1.9282,-1.9296 -1.9287,-5.0555 0,-6.9837c6.1724,-6.1733 17.7167,-17.7163 17.7167,-17.7163c1.9287,-1.9282 5.0554,-1.9282 6.9832,0c0,0 9.9617,9.9613 17.575,17.5745c1.9296,1.9296 1.9296,5.0559 0,6.9837c-1.9283,1.9287 -5.0555,1.9287 -6.9823,0c-6.1752,-6.1734 -9.15,-9.1486 -9.15,-9.1486z"/></g></g></svg>