<svg version="1.1" xmlns="http://www.w3.org/2000/svg" xmlns:xlink="http://www.w3.org/1999/xlink" width="77.51039" height="17.34683" viewBox="0,0,77.51039,17.34683"><g transform="translate(-163.28121,-171.32659)"><g stroke="none" stroke-miterlimit="10"><g fill="#fcc309"><path d="M164.57313,184.96129v-9.99415c0,-1.14223 0.77509,-2.14158 1.8086,-2.14158h1.42106c1.03351,0 1.93773,0.99935 1.93773,2.14158v10.13686c0,1.14223 -0.90422,2.14158 -1.93773,2.14158h-1.42106c-1.03351,-0.14254 -1.8086,-1.14206 -1.8086,-2.28429"/><path d="M233.94489,180.53542c-4.90897,0.57103 -10.07636,0.85663 -15.11447,0.8568h-7.75108v-2.85549h7.75108c5.0381,0 10.2055,0.2856 15.11447,0.85663l5.55494,0.57103l-5.55494,0.57103"/></g><path d="M218.83026,175.68106c5.03826,0 10.20565,0.85663 15.11447,2.42718l5.55494,1.85598l-5.55494,-0.57103c-4.90897,-0.57103 -9.94708,-0.85663 -15.11447,-0.85663h-7.75108v-2.85549h7.75108" fill="#ffffff"/><path d="M233.94489,181.82036c-4.90897,1.57055 -10.07636,2.42718 -15.11447,2.42701h-7.75108v-2.85549h7.75108c5.0381,0 10.2055,-0.2856 15.11447,-0.85663l5.55494,-0.57103l-5.55494,1.85615" fill="#fd9808"/><path d="M205.91194,184.24754h-31.00419l-4.00475,-0.57103c-0.64596,-0.14272 -1.16264,-0.57103 -1.16264,-0.99935v-5.28267c0,-0.57103 0.38755,-0.99935 1.16264,-0.99935l4.00475,-0.71392h31.00419l5.16739,1.71326v5.13979z" fill="#ffdd09"/><path d="M170.90316,176.39497c-0.77509,0 -1.16264,0.42832 -1.16279,0.85663v-1.71326c0,-0.71392 0.38755,-1.42783 1.16264,-1.57055l4.00475,-1.14223h31.00419l5.16739,2.85549v1.71326l-5.16739,-1.71326h-31.00403l-4.00475,0.71392" fill="#ffffff"/><path d="M205.91194,187.10304h-31.00419l-4.00475,-1.14223c-0.64596,-0.2856 -1.16264,-0.99935 -1.16264,-1.71326v-1.71326c0,0.57103 0.38755,0.99935 1.16264,0.99935l4.00475,0.71392h31.00419l5.16739,-1.71326v1.71326z" fill="#fd9808"/><path d="M173.61599,187.10304v-14.2773c0,-0.85663 0.51668,-1.42766 1.29177,-1.42766h31.00419c0.77509,0 1.29177,0.57103 1.29177,1.42766v14.2773c0,0.85663 -0.51668,1.42766 -1.29177,1.42766h-31.00419c-0.77509,0 -1.29177,-0.57103 -1.29177,-1.42766zM176.19968,174.2534v11.42198h28.42049v-11.42198z" fill="#000000"/><path d="M168.4486,184.39026v-8.85192c0,-1.42766 0.90422,-2.71278 2.19615,-2.99821l3.87547,-1.14223c0.38755,0 0.77509,0 1.16264,0.2856c0.25842,0.2856 0.51668,0.71392 0.51668,1.14223v14.2773c0,0.42832 -0.12913,0.85663 -0.51668,1.14223c-0.38755,0.2856 -0.77509,0.2856 -1.16264,0.2856l-4.00475,-1.14223c-1.29177,-0.2856 -2.06686,-1.57055 -2.06686,-2.99838zM173.61599,174.68171l-2.45456,0.71392c-0.12913,0 -0.12913,0 -0.12913,0.14272v8.7092c0,0.14272 0.12913,0.2856 0.12913,0.2856l2.45456,0.71392z" fill="#000000"/><path d="M163.28121,184.96129v-9.99415c0,-1.99886 1.42106,-3.56941 3.10037,-3.56941h1.42106c1.8086,0 3.22966,1.57055 3.22966,3.56941v10.13686c0,1.99886 -1.42106,3.56941 -3.22966,3.56941h-1.42106c-1.67932,-0.14272 -3.10037,-1.71326 -3.10037,-3.71213zM168.4486,174.96714c0,-0.42832 -0.25842,-0.71392 -0.64596,-0.71392h-1.42106c-0.25842,0 -0.51668,0.2856 -0.51668,0.71392v10.13686c0,0.2856 0.25842,0.57103 0.51668,0.57103h1.42106c0.38755,0 0.64596,-0.2856 0.64596,-0.71392z" fill="#000000"/><path d="M204.62017,187.10304v-14.2773c0,-0.42832 0.25842,-0.99935 0.64596,-1.28495c0.38755,-0.2856 0.90422,-0.2856 1.29177,0l5.16739,2.85549c0.38755,0.2856 0.64596,0.71392 0.64596,1.28495v8.56648c0,0.57103 -0.25842,0.99935 -0.77509,1.28495l-5.16739,2.85549c-0.38755,0.2856 -0.90422,0.14272 -1.29177,0c-0.3877,-0.28577 -0.51683,-0.8568 -0.51683,-1.28512zM207.20387,175.11003v9.70855l2.58369,-1.42766v-6.85322z" fill="#000000"/><path d="M209.78741,184.24754v-8.56648c0,-0.85663 0.51668,-1.42766 1.29177,-1.42766h7.75108c0.77509,0 1.29177,0.57103 1.29177,1.42766v8.56648c0,0.85663 -0.51668,1.42766 -1.29177,1.42766h-7.75108c-0.77494,0 -1.29177,-0.57103 -1.29177,-1.42766zM212.3711,177.10889v5.71099h5.16739v-5.71099z" fill="#000000"/><path d="M217.53849,184.24754v-8.56648c0,-0.85663 0.51668,-1.42766 1.29177,-1.42766c5.16739,0 10.46391,0.85663 15.50202,2.56989l5.55509,1.71326c0.51668,0.2856 0.90422,0.85663 0.90422,1.42766c0,0.57103 -0.38755,1.14223 -0.90422,1.42766l-5.55494,1.71326c-5.0381,1.71326 -10.33478,2.56989 -15.50202,2.56989c-0.77525,0.00017 -1.29192,-0.57086 -1.29192,-1.42749zM220.12219,177.10889v5.71099c4.52143,-0.14272 9.04286,-0.99935 13.43515,-2.42718l1.42106,-0.42832l-1.42106,-0.42832c-4.3923,-1.42783 -8.91372,-2.28446 -13.43515,-2.42718z" fill="#000000"/></g></g></svg>